<?xml version="1.0" encoding="UTF-8" standalone="no"?>
<svg
   viewBox="0 0 400 400"
   width="400"
   height="400"
   version="1.1"
   id="svg27"
   sodipodi:docname="Earth.svg"
   inkscape:version="1.2.1 (9c6d41e410, 2022-07-14, custom)"
   xml:space="preserve"
   xmlns:inkscape="http://www.inkscape.org/namespaces/inkscape"
   xmlns:sodipodi="http://sodipodi.sourceforge.net/DTD/sodipodi-0.dtd"
   xmlns="http://www.w3.org/2000/svg"
   xmlns:svg="http://www.w3.org/2000/svg"><defs
     id="defs31" /><sodipodi:namedview
     id="namedview29"
     pagecolor="#505050"
     bordercolor="#eeeeee"
     borderopacity="1"
     inkscape:showpageshadow="0"
     inkscape:pageopacity="0"
     inkscape:pagecheckerboard="0"
     inkscape:deskcolor="#505050"
     showgrid="false"
     inkscape:zoom="2.9238865"
     inkscape:cx="223.8459"
     inkscape:cy="210.67849"
     inkscape:window-width="1920"
     inkscape:window-height="1007"
     inkscape:window-x="0"
     inkscape:window-y="0"
     inkscape:window-maximized="1"
     inkscape:current-layer="svg27" /><g
     inkscape:groupmode="layer"
     id="layer1"
     inkscape:label="Layer 1" /><g
     fill="#ffffff"
     id="g25"
     transform="matrix(-0.00141797,-1.0109491,1.0094278,-0.00142011,-168.54746,806.83243)"
     style="fill:#00a800;fill-opacity:1;opacity:0.99999999"><path
       d="m 608.42,328.87 0.047,1.193 1.003,-0.048 -0.055,-1.185 z m -1.459,-1.626 1.328,0 0,1.012 -1.328,0 z m -1.228,-0.179 0.14,-1.001 -1.167,-0.167 -0.14,0.993 z m -2.152,-0.514 -1.16,-0.168 0.141,-1.004 1.16,0.168 z m -9.58,-1.337 h 1.328 l 0,1.013 -1.328,0 z m -1.736,2.185 0.141,-1.002 -1.16,-0.167 -0.14,1.002 z m -1.04,1.361 -1.332,-0.338 0.242,-0.982 1.332,0.339 z m -2.38,1.247 -0.165,-1.013 0.985,-0.165 0.165,1.012 z m -130.49,105.71 h 1.003 l -0.173,-2.528 -1.331,-0.51 0,-0.842 h -0.83 v 1.686 h 1.331 z m 10.31,7.418 1.16,0.851 1.167,2.529 -0.666,1.176 -1.825,-1.685 -1.332,-1.853 -0.666,-1.518 -1.168,-3.038 2.492,1.177 z m 39.564,50.617 -1.168,0.676 -0.665,-1.01 -1.661,-0.509 -0.165,-1.518 -1.332,-2.028 1.998,0.342 2.155,1.853 z m 86.605,-154.03 h -1.828 l -0.333,-3.71 0.998,-0.678 0,-1.855 h -5.82 l -0.165,-1.854 0.833,-0.507 -1.331,-0.506 -0.998,1.348 -0.33,1.519 -1.663,0.339 0,0.842 h -1.163 v 2.192 l -4.656,3.88 -9.308,-0.335 c -0.668,1.517 -2.33,-0.17 -2.33,-0.17 -0.33,-1.012 -2.657,0 -2.657,0 0,1.857 -3.158,-0.843 -3.158,-0.843 l -5.82,-4.219 c -3.324,-3.036 -8.31,0.845 -8.476,1.687 0.166,2.363 -3.823,0.507 -3.823,0.507 0,0 -3.324,-1.011 -3.824,0.339 -0.497,1.348 -2.662,1.013 -2.662,1.013 l -0.333,0.674 -1.663,0.337 -0.33,1.011 -1.996,0.34 4.986,-0.17 c 1.33,-0.169 -0.5,2.869 -1.33,2.7 l -2.324,0.169 -0.834,0.842 h -2.16 l -0.997,1.352 -3.157,-0.17 c 0,0 -1.83,1.519 -1.662,2.024 0.166,0.507 -0.333,2.026 -0.833,2.026 -0.499,0 -1.496,1.517 -1.163,2.023 0.334,0.507 -0.997,2.194 -0.997,2.194 l -0.331,1.689 -0.997,0.335 0,4.556 -1.996,1.35 v 2.024 l -2.994,3.206 0.334,2.698 -2.492,2.7 0.33,2.7 -1.496,0.506 -0.33,1.18 -0.665,3.542 1.662,0.17 c 0.829,-0.338 0.664,2.194 0,2.53 -0.667,0.338 -2.496,1.011 -1.496,1.685 0.998,0.678 -2.66,0.508 -2.66,-0.505 0,-1.01 -1.996,-1.855 -2.493,-1.517 -0.5,0.336 -1.332,-1.518 -1.332,-1.518 -1.828,-1.855 -7.48,0.168 -7.48,0.168 l -0.834,2.699 c -1.826,0.339 -2.99,3.375 -2.99,3.375 -1.496,0.507 -2.659,2.36 -2.16,2.867 0.498,0.507 -0.833,0.675 -0.833,0.675 v 3.713 l -0.83,1.18 0.164,4.048 c 1,0 0.834,1.858 0.834,1.858 -1.663,0.168 -1.333,2.362 -1.333,2.362 l -3.489,1.18 -0.664,1.012 -4.322,-0.17 -1.163,1.182 -1.167,-1.182 h -8.311 l -0.33,-0.843 -1.663,-0.34 -0.168,-1.853 -2.492,0.167 -0.498,1.013 -2.661,0.167 c 0.166,1.688 -2.66,4.22 -2.99,3.547 -0.337,-0.676 -2.164,-2.534 -1.331,-2.868 0.832,-0.34 2.994,-0.679 2.994,-0.679 v -1.18 l -6.153,-0.167 -0.663,1.013 -2.496,0.167 0,2.7 -1.162,0.338 c -0.833,0.504 0.164,2.362 0.164,2.362 1.164,1.18 -0.164,3.034 -0.164,3.034 -1,1.013 0.829,2.871 0.829,2.871 1.331,0.335 -0.83,1.348 -0.83,1.348 0.33,1.686 1.33,2.193 1.33,2.193 -1,1.686 0.667,2.528 0.667,2.528 l 0.164,2.872 1.164,0.675 0,1.852 0.664,1.182 2.66,0 -0.166,-4.217 c -2.328,-2.7 1.993,-3.375 2.162,-2.365 0.168,1.013 1.996,1.52 1.996,1.52 0.333,2.532 3.16,4.048 3.988,1.52 0.832,-2.534 1.497,-1.013 1.996,0.166 0.499,1.183 3.653,4.051 3.653,4.051 h 2.496 l 0.334,2.363 c 2.825,-0.17 3.654,0.172 4.818,4.048 1.166,3.878 4.323,4.891 4.323,4.891 l 2.328,-0.168 c 0,-2.022 2.328,0.34 2.328,1.354 0,1.008 4.487,4.889 4.487,4.889 l 4.487,1.01 4.16,3.379 3.156,-0.338 h 1.332 c 0.829,-2.871 4.82,0.166 5.15,1.18 0.336,1.012 2.995,2.7 3.324,1.854 0.335,-0.842 2.163,-0.335 2.496,2.193 0.332,2.534 1.494,2.027 1.494,2.027 l 9.477,-0.169 3.324,-2.871 8.48,-0.166 c 4.32,-0.169 1.66,-6.075 0.832,-6.075 -4.27736,-4.30822 -7.3073,-6.95325 -7.3073,-6.95325 L 527.845,431.161 c -2.826,0 -0.333,-4.051 -0.333,-4.051 2.16,-1.351 -0.5,-3.54 -0.5,-3.54 0.334,-2.028 -1.164,-4.39 -1.164,-4.39 -2.99,-2.024 -2.16,-5.906 -2.16,-5.906 l 0,-2.7 c -2.492,-2.36 0.998,-2.7 0.998,-2.7 1.162,-2.02 -0.833,-3.54 -0.833,-3.54 l -0.165,-2.194 -2.66,-0.339 -0.33,-7.93 -5.985,-8.601 c -1.166,-0.34 -0.334,-2.363 -0.334,-2.363 1.496,-0.844 -0.335,-2.866 -0.335,-2.866 l -0.165,-3.713 3.49,-0.34 0.832,-1.347 1.662,0 -0.165,-4.387 c 0.83,-2.193 2.824,-1.013 2.824,-1.013 l 2.327,0.17 1.332,-2.532 0.33,-2.025 -1.827,-0.167 c -1.995,-1.182 -0.998,-5.567 -0.998,-5.567 3.159,-4.726 6.814,-2.026 6.814,-2.026 l 2.33,-0.167 c 3.489,2.36 0.33,6.747 0.33,6.747 -0.665,1.013 -0.33,4.218 -0.33,4.218 l 0.83,5.397 -2.162,1.858 c -1.827,1.013 -1.827,3.374 0.168,3.88 1.329,0.167 0.83,3.374 -1.166,1.18 -2.99,0 1.666,2.7 0.335,2.022 2.993,1.52 2.325,-1.348 2.325,-1.348 l 3.993,-3.206 c 1.497,-1.18 4.157,2.532 4.157,3.039 0,0.505 6.648,0.166 6.648,0.166 1.828,1.181 2.492,4.22 2.492,4.22 1.831,-2.365 5.653,-0.172 2.828,1.18 2.657,1.687 2.657,3.204 2.657,3.204 2.164,-0.674 2.164,1.013 2.164,1.52 0,0.506 0.664,-2.53 0.664,-2.53 -2.493,-1.857 3.324,-2.532 1.664,0.843 l -1,1.52 1.664,1.348 0.164,3.882 c 3.659,-0.34 2.661,-4.895 2.661,-4.895 l 1.662,-0.336 c 0,-1.52 1.162,-0.676 1.162,-0.676 -1.162,-5.737 2.662,-6.747 2.662,-6.747 2.16,-0.506 2.326,-5.064 2.326,-5.064 -1.494,-0.674 -0.666,-3.035 0.998,-1.009 1.66,2.021 -0.998,-4.052 -0.998,-4.052 l -1.33,-1.18 -1.827,-0.168 -0.168,-1.856 -2.99,0 -0.5,2.363 -1.162,0.337 -0.335,-0.676 -0.497,1.856 -2.992,0 -0.165,-2.024 1.828,-0.506 0.665,-1.012 0.497,-2.7 h 2.163 l 2.825,-0.843 c 0.164,-2.868 1.662,-2.192 1.662,-2.192 l 0.997,0.842 1.496,1.181 0.167,1.01 -0.999,0.506 -0.164,1.352 0.499,1.855 1.328,0 c 0.499,-2.7 3.992,-2.7 4.988,-1.012 l 0.999,-2.362 c -2.327,-1.18 -0.044,-3.038 0.62,-2.193 0.665,0.844 2.205,-2.193 2.205,-2.193 0,0 1.163,1.518 0,-0.507 -1.164,-2.025 0.83,-3.036 0.83,-3.036 -0.331,-2.024 2.162,-1.687 2.162,-1.687 l 0.167,-2.698 -2.33,-0.171 c -0.495,2.362 -2.49,0.339 -1.494,-0.167 1,-0.507 1.993,-1.52 1.993,-1.52 V 352.2 l 0.999,-0.337 0.165,-1.687 2.495,0 2.16,-1.012 0.5,-0.844 2.326,-0.168 3.324,-3.038 -0.33,-1.348 c -1.995,0 0,-1.52 0,-1.52 l 0.328,-2.524 z"
       id="path9"
       style="fill:#00a800;fill-opacity:1"
       sodipodi:nodetypes="cccccccccccccccccccccccccccccccccccccccccccccccccccccccccccccccccccccccccccccccccccccccccccccccccccccccccscccccccccccccccccscccccccccccccccccccccccccccccccccccccccccccccccccccccccsccccccccccccccccccccccccccccccccccccccccccccccccccsccccscccccccccccccccccccccccccccccccccccccccccccccccccccccccccc" /><path
       d="m 527.84,373.12 -2.993,-0.337 0.168,1.18 h 0.83 c 1.328,2.363 0.166,8.098 0.166,8.098 0,0 -1.993,0.167 -2.327,-0.843 -0.33,-1.012 -1.164,2.194 -0.5,2.7 0.665,0.504 2.994,0 3.16,1.857 0.164,1.854 1.496,-1.182 1.496,-1.182 z"
       id="path11"
       style="fill:#00a800;fill-opacity:1" /><path
       d="m 528.5,392.01 0.337,-1.519 -1.167,-0.5 0.164,-2.53 1.003,-0.174 0.165,-1.185 -2.5,1.694 -1.66,-1.01 v 4.047 l 2.663,3.538 z m 0.666,4.389 -1.16,0.167 -0.172,1.352 1.332,0.167 z m -1.496,8.603 -1.41,0.167 v 1.185 l 1.41,-0.167 z m 1.96,-4.006 c 0.39,0 0.703,-0.319 0.703,-0.713 a 0.708,0.708 0 0 0 -0.703,-0.717 0.71,0.71 0 0 0 -0.705,0.717 c 0,0.394 0.316,0.713 0.705,0.713 z"
       id="path13"
       style="fill:#00a800;fill-opacity:1" /><circle
       cx="530.78998"
       cy="403.82999"
       r="0.70999998"
       id="circle15"
       style="fill:#00a800;fill-opacity:1" /><circle
       cx="530.83002"
       cy="384.56"
       r="0.70999998"
       id="circle17"
       style="fill:#00a800;fill-opacity:1" /><path
       d="m 588.51,364.01 v -3.204 h -0.995 l -0.165,-1.185 -1.833,-0.167 -0.33,0.843 h -0.83 l -0.172,1.352 h 1.003 l 0.164,1.01 -0.665,0.675 -0.33,0.843 -1.331,0.342 -2.993,2.87 -0.165,1.344 -0.83,1.185 -0.995,2.528 -3.494,0.167 -0.666,3.038 0.493,2.528 2.993,1.185 0.337,-1.686 0.995,-0.509 0.172,-1.685 0.658,-1.185 1.003,-1.177 0.33,-1.352 1.66,-1.01 1.998,-0.341 0.83,-1.01 0.337,-2.02 0.118,-1.518 0.713,-1.018 z m 3.488,7.09 v -2.362 l -0.335,-2.194 -2.49,-1.18 -1.828,1.687 -0.334,2.363 v 1.517 l -1.662,0.338 -0.335,4.555 -1.328,0.507 0.167,1.687 -3.656,1.012 -0.333,2.193 -1.328,0.843 -0.669,2.025 -0.83,4.893 c 0,0 1.498,2.868 2.328,1.518 0.832,-1.349 2.16,-1.518 2.16,-1.518 l 0.5,-1.182 4.488,0.169 c 0.333,-1.858 2.494,-1.18 2.494,-0.337 0,0.843 1.663,0.167 1.663,0.167 l 1.162,-1.855 h 1.827 l 0.167,-2.023 0.832,-0.507 v -3.038 c 2.661,-0.843 2.326,-3.373 2.326,-3.373 l 0.669,-0.843 -0.334,-1.18 c -1.332,-0.507 -0.668,-1.69 0.164,-1.352 0.834,0.337 -1.163,-1.519 -1.163,-1.519 -0.997,0.846 -1.826,-1.011 -1.826,-1.011 z m 2.66,20.41 c -0.165,2.024 -2.66,2.7 -2.66,2.7 l -1.828,-0.506 -0.997,-0.844 -0.167,-2.363 1.495,-0.167 0.333,1.013 z m 8.98,-10.79 c 0.36,1.471 0.33,-2.365 0.995,-2.194 0.664,0.168 0.168,-2.36 0.168,-2.36 l -2.993,2.19 c 1.496,0.17 1.66,1.69 1.83,2.364 z m 8.81,-8.78 c 0.664,1.52 0.5,3.713 2.99,5.4 0.842,0.569 -0.499,1.688 -1.332,1.18 -0.83,-0.505 -3.154,-4.219 -3.154,-4.219 v -2.192 c 0.498,-1.349 1.208,-0.823 1.496,-0.169 z m 2.158,50.781 -0.995,-0.342 -1.16,0.85 0.494,0.502 0.494,0.843 z m -6.318,-2.191 v 2.03 m 25.371,-5.317 -0.532,-0.851 -1.324,0.835 0.525,0.859 z m 46.779,36.017 1.498,0.673 0.164,2.868 c 1.997,2.024 8.48,0.338 8.48,-0.169 0,-0.507 -0.335,-6.241 -0.335,-6.241 l -0.833,-0.845 -0.164,-4.22 c 0.664,-2.193 -3.16,-5.4 -3.491,-4.72 -0.333,0.672 -2.494,0.164 -2.494,0.841 0,0.673 -1.328,4.048 -0.664,5.23 0.664,1.182 -0.5,1.182 -0.665,2.362 -0.165,1.18 -1.829,3.208 -1.496,4.221 z m -3.66,-6.75 c -0.315,1.278 -1.493,2.024 -2.158,1.517 -0.669,-0.507 0.827,0.842 1.162,1.52 0.332,0.673 1.328,0.673 1.663,0 0.33,-0.679 0.165,-2.193 0.5,-2.868 0.33,-0.676 -1,-0.844 -1.167,-0.17 z m -7.73,-30.95 h 1.162 v 3.207 h -1.162 z m 17.21,-32.48 c -0.725,-0.983 3.324,-2.7 3.989,-0.674 0.664,2.022 0,1.687 -0.665,1.518 -0.667,-0.17 -2.326,0.505 -3.324,-0.844 z m 3.402,-21.606 1.825,0.334 0.18,-0.994 -1.833,-0.334 z m -4.482,0.747 -1.237,0.7 -1.082,-0.684 -0.525,0.85 1.332,0.844 0.251,0.159 0.25,-0.144 1.004,-0.564 0.125,0.31 0.924,-0.374 -0.337,-0.842 -0.211,-0.533 z m 6.23,-39.881 h -2.495 c 0,0 0.832,0.337 -1.493,-1.857 -2.331,-2.192 -3.824,0.507 -3.824,0.507 l -2.66,0.337 v 2.7 l -1.332,0.505 0.168,1.688 1.828,-0.168 c 0,0 0,2.024 0.5,1.181 0.5,-0.844 4.655,0.167 4.321,2.193 -0.135,0.832 4.158,3.035 3.66,5.734 2.16,0.339 1.661,2.533 1.661,2.533 l 2.825,0.337 0.833,-1.687 0.83,0.169 v -1.013 l -1.832,-0.506 -0.33,-5.4 -1.163,-0.843 0.331,-1.35 -1.328,-0.507 0.665,-2.192 z m 7.31,17.21 -1.329,-0.167 -2.996,0.506 -1.659,3.205 c 0,0 0.83,0.506 1.493,1.687 0.665,1.182 0.999,8.097 -0.996,9.28 -1.993,1.181 0.168,0.504 0.168,0.504 l -0.335,3.712 c 0.5,1.688 1.329,0.846 1.828,0 0.503,-0.84 1.002,-1.01 1.666,-1.854 0.665,-0.845 1.661,-2.362 1.828,-3.544 0.165,-1.18 0.997,-3.035 0.497,-3.542 -0.497,-0.506 0.5,-2.867 0.5,-2.867 0,0 0.665,-1.352 0,-2.7 -0.664,-1.351 0.166,-2.87 0.665,-3.545 z m 2.01,6.883 0.17,-1.35 0.992,0.128 -0.17,1.35 z m -0.06,4.662 -0.89,-0.453 0.499,-1.011 0.89,0.452 z m -1.45,-13.395 -0.667,-1.52 c 0,0 0,-1.347 0.332,-2.025 0.335,-0.674 -0.664,-1.347 -1.161,-1.517 -0.5,-0.17 -0.332,-1.518 -0.5,-2.194 -0.165,-0.674 -1.327,-1.18 -1.327,-1.18 0,0 -0.336,-2.53 -0.336,-3.036 0,-0.506 -1.495,-1.18 -0.996,-1.688 0.5,-0.506 0.833,-1.18 1.332,-1.519 0.499,-0.337 -0.5,-2.7 0.33,-2.193 0.832,0.507 0.832,1.35 1.165,2.025 0.332,0.674 -0.167,3.037 0.665,3.544 0.83,0.504 -0.168,2.19 1.163,2.19 1.329,0 0.5,3.208 0.5,3.208 0,0 -0.335,2.36 0.495,2.53 0.833,0.169 0.335,4.218 0.335,4.218 z m -10.8,-27.34 c 0.497,0.674 1.495,1.18 1.495,1.857 0,0.675 -0.332,1.18 0.667,1.349 0.995,0.168 1.662,-0.17 1.993,0.674 0.333,0.843 0.333,2.193 0.168,2.868 -0.168,0.676 0.165,1.687 0.995,1.687 0.833,0 0.998,0.17 0.998,0.676 0,0.505 0.998,-1.857 0.998,-1.857 -0.833,-0.674 -1.498,-2.194 -1.498,-2.194 0,0 -0.83,-2.361 -0.83,-2.698 0,-0.338 -1.162,-0.676 -1.66,-0.844 -0.5,-0.17 -1.333,-1.687 -1.333,-1.687 l -1.993,0.17 z m 1.66,-1.51 c -0.5,-0.677 -0.999,-1.182 -1.663,-1.518 -0.663,-0.339 -1.162,-0.676 -1.83,-0.676 -0.664,0 -1.327,-0.676 -0.998,-1.518 0.335,-0.844 -0.5,-1.181 -0.5,-1.857 0,-0.674 0.5,-0.674 1.332,-0.168 0.833,0.507 0.665,0.674 1.333,1.52 0.663,0.842 0.994,1.686 1.658,1.517 0.668,-0.17 1.166,1.518 1.83,1.012 0.665,-0.506 0.5,1.18 0.5,1.18 z m -19.45,19.06 c 0.917,0.932 -4.986,0.673 -4.986,0 0,-0.674 0.5,-3.035 1.993,-2.532 1.497,0.508 1.661,-3.035 1.661,-3.035 0,0 -1.328,0.167 -0.164,-0.507 1.163,-0.674 0,-1.687 -0.5,-2.193 -0.498,-0.507 -0.997,-1.35 -0.997,-1.35 h 2.33 c 0.998,-0.676 1.327,-3.88 1.327,-3.88 1.994,0.674 2.992,-0.676 2.992,-0.676 0,0 0.337,1.012 1,1.858 0.665,0.842 -1.665,1.18 -0.833,1.687 0.834,0.506 1.164,2.023 0.834,2.528 -0.335,0.507 -2.166,0.17 -2.166,-0.505 0,-0.675 -0.664,0.844 0,1.688 0.665,0.843 -0.83,2.023 -1.163,2.023 -0.333,0 -2.49,0.339 -0.664,1.35 1.827,1.012 3.826,0.508 3.826,0.508 0,0 1.495,-0.17 1.993,0.675 0.5,0.843 -0.165,1.012 -0.996,1.012 -0.83,0 -4.822,-0.339 -4.822,-0.339 0,0 -1.163,1.182 -0.665,1.688 z m -10.64,1.52 c 0.834,-0.169 2.824,-0.339 3.159,0.168 0.334,0.505 -1.164,1.18 -1.164,1.18 l -1.995,0.338 c -0.664,-0.844 -0.83,-1.517 0,-1.686 z m 21.45,-14.17 c 1.329,-0.674 4.154,-0.674 3.989,-1.687 -0.165,-1.012 1.661,-1.35 1.661,-1.35 l 0.5,2.024 1.496,1.012 0.167,1.856 c 0,0 0.497,-0.337 -1.33,0.17 -1.83,0.506 -0.664,1.348 -0.664,1.348 l -3.991,0.169 -0.5,-1.688 z m -6.49,-9.11 c 1.01,0 -0.33,3.88 2.326,3.543 2.66,-0.339 0.17,1.18 2.162,1.349 1.996,0.17 1.497,-1.518 2.161,-2.698 0.667,-1.181 0.335,-1.857 -0.83,-2.194 -1.166,-0.337 -1.166,-0.337 -1.496,-1.689 -0.331,-1.348 -1.662,-1.687 -1.662,-1.687 l -0.5,-2.023 -2.161,1.349 -2.16,2.868 c 0,2.195 1.162,1.182 2.16,1.182 z m 4.4,14.256 0.5,-1.012 0.894,0.454 -0.5,1.012 z m -1.74,-1.606 h 0.998 v 1.181 h -0.998 z m 0.839,-22.48 0.167,1.518 -0.991,0.112 -0.168,-1.516 z m -2.829,15.73 h 0.998 v 0.845 h -0.998 z m -2.618,-0.017 -0.098,-1.009 1.663,-0.166 0.098,1.008 z m -13.714,16.225 -0.914,-0.399 0.5,-1.18 0.913,0.398 z m -5.218,-3.071 -0.097,-1.005 1.665,-0.167 0.097,1.005 z m -32.497,-0.145 0.047,1.01 3.65,-0.167 -0.046,-1.01 z m -2.448,1.298 -0.331,-1.517 0.975,-0.219 0.331,1.516 z m -0.699,1.045 -0.315,-0.96 0.498,-0.169 0.315,0.961 z m 8.314,-2.845 -0.165,1.18 1.826,0.17 c 0,0 0.83,0.676 0.83,1.18 0,0.507 1.166,1.012 1.83,1.012 0.665,0 2.493,-1.35 2.493,-1.35 0,0 0.832,-2.362 0.168,-2.194 -0.667,0.168 -1.996,1.181 -2.16,0.168 -0.17,-1.012 -2.161,-0.506 -2.161,-0.506 z m 8.31,-1.86 c 0,0.505 -0.33,1.18 0.664,1.35 1.002,0.167 2.83,-0.674 2.995,0.337 0.168,1.012 0.168,1.689 1.496,2.196 1.328,0.504 2.162,0.674 3.159,0.674 0.995,0 3.16,-0.34 3.16,-0.34 0,0 2.351,0.368 2.824,0.845 1.828,1.855 2.99,2.361 3.49,1.518 0.498,-0.844 -0.166,-2.698 -0.331,-3.373 -0.168,-0.677 -2.496,-3.882 -3.327,-3.207 -0.83,0.676 -0.996,0 -2.493,0.505 -1.496,0.506 -4.655,0.17 -4.82,-0.505 -0.165,-0.676 -2.492,-1.01 -2.492,-1.687 0,-0.676 -1.661,-1.518 -1.497,-0.507 0.165,1.012 -1.162,1.518 -1.5,1.183 -0.33,-0.338 -1.328,1.011 -1.328,1.011 z m 38.24,-21.6 1.166,-3.71 c -1.661,-0.338 -1.331,-2.192 -1.331,-2.192 -0.166,-1.52 -2.492,-3.206 -3.324,-2.7 -0.83,0.505 -0.5,-3.544 -0.5,-3.544 0,0 1.498,-1.01 2.162,-0.505 0.665,0.505 -5.65,-8.435 -6.982,-7.592 -1.329,0.844 -4.319,-0.843 -4.154,-2.363 0.166,-1.517 -5.984,-6.58 -5.984,-6.58 0,0 -1.996,-1.347 -2.327,-0.335 -0.333,1.011 -0.997,1.687 0,2.191 0.996,0.508 0.83,-0.842 1.992,0.337 1.164,1.181 3.327,2.7 2.495,3.713 -0.832,1.014 -1.83,1.35 -1.83,1.35 l 1.166,1.35 h 1.828 l 0.333,2.867 c 0,0 1.993,1.013 2.493,2.194 0.499,1.18 0.499,1.856 0,2.532 -0.5,0.674 -1.493,1.855 -1.329,3.034 0.165,1.181 1.496,1.688 1.496,1.688 l 1.328,0.17 1,0.506 v 2.195 c 1.327,-0.339 3.488,1.515 3.323,2.698 -0.165,1.18 0.33,0.505 1.993,1.687 1.664,1.18 1.166,1.35 2.329,2.194 1.164,0.84 2.162,0.335 2.657,-1.185 z"
       id="path19"
       style="fill:#00a800;fill-opacity:1" /><path
       d="m 645.86,278.14 c -0.165,-0.676 -0.5,-3.039 0.499,-2.87 0.997,0.17 0.333,0 1.496,0.507 1.164,0.507 1.33,-0.843 1.33,-0.843 h 1.83 l 2.325,1.854 -0.333,1.52 -1.662,0.167 c -0.83,-1.348 -2.493,-0.842 -2.16,0.34 0.332,1.18 -0.83,3.373 -1.494,3.54 -0.665,0.17 -2.83,0.17 -2.66,-0.841 0.165,-1.013 0.829,-3.374 0.829,-3.374 z m -1.33,-4.56 v -1.349 c 0,0 -0.17,-1.349 -0.998,-1.349 -0.829,0 -2.326,-1.011 -1.996,-1.687 0.335,-0.676 -2.825,-1.35 -2.825,-1.35 0,0 -2.824,-2.7 -1.827,-2.36 0.998,0.336 0.5,-1.183 0.5,-1.183 0,0 -1.997,0.337 -2.496,0.17 -0.5,-0.17 -0.334,-1.688 -0.334,-1.688 0,0 -1.992,-0.506 -1.992,0 0,0.507 0.665,0.507 0.994,1.517 0.335,1.012 0.169,2.7 1.667,3.037 1.496,0.338 1.826,0.674 1.995,1.35 0.166,0.676 1.993,0.843 1.993,0.843 l 1.331,0.675 z m -18.444,-18.556 -1.332,-0.334 v 1.52 l 1.825,0.166 z m -0.006,-5.734 c -1.738,-1.32 2.325,1.013 2.325,1.013 1.329,0 2.16,1.012 2.16,1.52 0,0.505 1.83,0.337 1.83,0.337 l 0.169,-1.183 -1.333,-1.687 -1.162,-0.841 c 0,0 -1.828,-0.17 -1.828,-0.676 0,-0.505 -1.497,2.024 -2.161,1.517 z m 30.58,1.01 c -0.486,1.476 -0.664,3.544 -1.496,3.544 -0.83,0 -0.5,2.195 -0.5,2.195 0,0 2.165,0 2.83,0.167 0.662,0.167 0.662,1.854 0.662,1.854 2.496,-0.167 3.494,3.207 3.16,4.05 -0.334,0.843 0.997,0.843 0.997,0.843 0,0 0,2.7 -0.334,3.374 -0.33,0.676 2.162,1.182 2.826,2.194 0.665,1.013 -0.334,4.386 -0.83,4.555 -0.5,0.17 1.327,0.674 1.162,1.518 -0.168,0.845 0.5,0 0.665,1.35 0.165,1.35 0.5,4.217 0.5,4.217 l 2.325,0.17 c 0.334,-2.192 4.62,-2.277 5.32,-2.025 2.826,1.012 4.99,5.399 4.99,6.41 0,1.012 -1.831,1.183 -1.831,1.183 l 0.334,4.89 c 2.825,0.845 5.152,4.895 4.821,5.57 -0.333,0.674 1.992,0.507 1.992,0.507 0.335,-3.04 3.16,-2.026 3.324,-1.013 0.17,1.013 0.666,3.206 0.666,3.206 l 0.832,1.516 1.163,1.181 1.828,-0.168 0.5,1.013 2.16,0.339 c 0,0 1.831,2.022 1.996,2.53 0.168,0.504 2.66,0.337 3.324,0.504 0.664,0.17 1.663,0.676 1.828,1.52 0.168,0.844 1.166,2.193 1.166,2.193 0,0 1.993,0.507 2.16,1.18 0.166,0.674 0.999,2.193 0.999,2.193 l 1.658,1.35 0.168,1.52 1.828,0.169 0.5,2.022 2.99,-0.167 1.665,-1.181 c 2.16,-1.18 3.657,-2.7 3.824,-3.375 0.164,-0.675 0.497,-3.204 2.16,-2.698 1.661,0.506 0.5,-3.713 0.5,-3.713 0,0 -2.327,-1.687 -2.163,-2.532 0.167,-0.842 -2.325,-2.528 -2.16,-3.204 0.165,-0.676 -2.161,-2.024 -1.996,-2.699 0.165,-0.676 -1.163,-2.532 -1.163,-2.532 l -2.495,-2.36 -0.333,-1.52 -1.993,-0.167 -3.989,-4.893 0.165,-1.351 -1.163,-0.168 v -1.855 l -1.162,-0.676 -1.83,-0.169 -3.656,-4.047 -0.333,-1.857 h -1.828 l 0.331,-3.544 c 1.165,-1.519 0.499,-4.386 0.499,-4.386 0,0 -2.33,1.18 -3.49,0.674 -1.166,-0.504 0.497,-1.687 0.497,-1.687 v -1.349 l -0.996,-1.012 c 0,0 -2.828,0.339 -2.993,-0.167 -0.166,-0.507 -0.664,-2.7 -0.664,-2.7 l -0.167,-2.87 -1.162,-0.503 -0.169,-1.014 -1.826,0.168 v -2.024 l -0.999,-0.337 -0.996,-0.506 -0.166,-2.026 -3.658,-0.167 -1.163,-1.687 -1.329,-2.025 -4.156,-0.337 -0.998,-1.01 -1.662,-0.34 -1.163,-0.506 -0.499,0.845 -3.16,0.167 -0.164,1.013 c -1.662,0.843 -8.31,0.167 -8.48,0.673 z m 17.46,-4.38 c -0.263,-1.332 3.327,-2.53 4.157,-1.52 0.833,1.013 3.159,1.184 3.492,6.245 0.117,1.812 -2.993,-1.855 -2.993,-1.855 l -2.495,-0.844 c -1.329,-0.339 -1.996,-1.18 -2.16,-2.026 z m -48.757,2.061 -0.908,-0.41 0.667,-1.52 0.908,0.411 z m -8.593,-16.571 -2.165,-2.194 v -1.855 l -0.665,-0.677 -0.664,-2.36 -2.16,-0.675 -2.162,0.842 -2.327,1.519 -2.492,0.34 -1.332,1.516 5.32,0.504 0.996,1.69 3.827,0.337 2.49,2.53 c 2.166,0.676 2.663,-0.337 1.334,-1.517 z m -0.33,-8.27 c -0.366,-1.483 -2.495,1.855 -0.33,2.528 2.16,0.679 4.318,0 4.318,0 l 0.5,-1.011 8.31,0.17 c 0.668,-0.676 0.998,-1.688 0.998,-1.688 0,0 1.996,-0.676 2.825,-0.339 0.832,0.34 0.169,-2.36 -0.665,-2.023 -0.83,0.337 -2.491,0.168 -2.491,0.168 h -2.994 c -0.165,-1.18 -2.825,-0.675 -2.99,0 -0.17,0.675 -1.163,0.843 -1.163,0.843 l -3.824,0.339 c -0.333,1.013 -2.326,1.687 -2.494,1.013 z m -16.46,28.47 c 2.556,0.811 3.49,0.21 3.659,-0.464 0.165,-0.675 0.33,-0.845 1.328,-1.012 0.997,-0.17 -0.167,-2.193 -1.163,-2.025 -0.999,0.169 -1.996,-0.337 -2.16,-1.18 -0.17,-0.843 -1.832,-3.037 -1.997,-1.35 -0.166,1.688 -1.163,1.688 -0.998,2.869 0.168,1.178 0.667,2.949 1.331,3.162 z m -19.11,1.9 c -0.12,-0.597 3.324,-0.674 3.824,-0.17 0.5,0.507 0.165,1.35 1.662,1.35 1.494,0 0.83,1.013 0.664,1.52 -0.165,0.505 -1.826,0.337 -1.996,-0.168 -0.165,-0.507 -2.66,-0.678 -2.66,-0.678 0,0 -1.329,-1.013 -1.494,-1.854 z m 55.15,-33.74 0.344,-0.284 1.669,-1.35 -0.627,-0.79 -1.316,1.065 -0.846,-0.86 -0.705,0.715 1.16,1.181 z m -7.514,-4.47 1.834,-1.182 -0.533,-0.853 -1.567,1.01 -1.066,-0.674 -0.524,0.858 1.331,0.842 0.259,0.17 z m -5.17,36.282 0.838,-0.541 -1.16,-1.853 -0.133,-0.206 -0.243,-0.024 -1.66,-0.175 -0.102,1.01 1.425,0.143 z m -55.436,44.438 0.17,1.857 h 2.49 c 0.999,0 -0.83,-1.181 -0.83,-1.181 0,0 -1.994,0.17 -1.83,-0.676 z m 3.17,0.055 0.637,-0.78 0.997,0.84 -0.637,0.78 z m -30.288,-31.564 0.707,-0.716 0.997,1.013 -0.707,0.716 z m 47.588,218.8 0.831,-0.842 0.486,-0.493 -0.619,-0.318 -1.66,-0.843 -0.447,0.906 1.041,0.525 -0.344,0.35 z m -12.613,-12.093 0.58,-0.82 -0.642,-0.468 0.501,-0.422 -0.635,-0.779 -1.002,0.843 -0.494,0.421 0.525,0.382 z m 124.05,-33.715 c -0.22,-0.86 -1.19,-1.212 -1.299,-1.248 l -0.317,0.962 v -0.006 c 0.079,0.03 0.194,0.09 0.31,0.166 l 0.203,0.875 a 3.207,3.207 0 0 1 -0.22,0.292 l 0.732,0.685 c 0.533,-0.594 0.73,-1.17 0.591,-1.726 z m -0.089,-3.306 0.125,-1.518 1.622,0.254 -0.125,1.384 z m 40.149,-13.034 c 0.71,-0.45 1.62,-1.267 1.496,0.634 -0.126,1.897 -0.873,1.266 -1.496,1.897 -0.623,0.634 -0.997,-1.897 0,-2.531 z m 8.46,-7.16 c -0.014,-0.033 -0.023,-0.15 -0.03,-0.235 -0.022,-0.279 -0.058,-0.658 -0.255,-1.056 l -0.891,0.452 c 0.11,0.226 0.132,0.465 0.151,0.694 0.025,0.295 0.058,0.633 0.341,0.847 0.179,0.136 0.404,0.175 0.673,0.123 l -0.19,-0.98 c 0.076,0.013 0.177,0.083 0.201,0.155 z m -2.22,0.83 a 21.99,21.99 0 0 0 0.64,2.078 l 0.935,-0.356 c -0.007,-0.009 -0.37,-0.998 -0.609,-1.97 z m -3.63,3.98 -0.993,-0.1 c -0.078,0.797 0.112,1.78 0.897,1.94 l 0.196,-0.992 c 0.007,0 0.016,0.006 0.018,0.006 -0.08,-0.072 -0.154,-0.48 -0.118,-0.854 z m -4.37,-20.13 a 0.91,0.91 0 0 0 -0.545,-0.71 c -0.738,-0.324 -1.982,0.213 -2.592,0.627 l 0.552,0.842 c 0.631,-0.427 1.46,-0.633 1.645,-0.539 -0.017,-0.006 -0.04,-0.036 -0.046,-0.055 z m -46.04,-53.9 c -0.664,0.676 -2.16,1.013 -2.16,1.013 l -0.5,1.856 -0.83,0.674 c 0,0 0.165,0.506 0,1.687 -0.166,1.18 -1.663,1.856 -1.663,1.856 l -0.664,0.844 c 0,0 -4.007,0.217 -4.488,0 -1.497,-0.675 -0.498,-2.7 0.5,-2.531 0.995,0.17 -0.169,-2.869 -0.169,-2.869 l 1.332,-0.168 c 0,0 0.164,-3.038 0.664,-3.038 0.5,0 -0.165,-1.011 -0.833,-1.518 -0.664,-0.504 -1.494,-2.191 -2.162,-2.023 -0.664,0.167 -3.324,0 -3.324,0 l -0.499,1.013 -1.83,0.336 c 0,0 0.158,1.305 -0.161,1.688 -1.002,1.18 -4.822,3.71 -3.162,-0.506 l 0.497,-1.011 v -1.52 l -2.989,-0.167 c 0,0 -1.496,-0.507 -1.496,-1.182 0,-0.675 -0.167,-1.517 -0.167,-1.517 l -3.492,-3.88 -4.154,-0.506 -0.334,-0.845 -2.49,-0.337 c -2.995,-1.517 -5.656,-0.169 -5.156,2.362 0.499,2.533 1.328,3.544 -0.331,3.544 -1.665,0 -1.996,-1.35 -1.996,-1.35 0,0 -1.328,-0.507 -1.328,0.168 0,0.676 -0.5,2.025 0,2.7 0.496,0.673 -0.668,1.686 -1.167,1.18 -0.495,-0.507 -1.826,-2.022 -1.493,-2.529 0.331,-0.506 -2.33,-3.713 0.331,-4.218 2.661,-0.507 -0.166,-2.026 0.833,-2.361 l 1.328,-0.676 h 1.329 l 0.832,-0.676 -2.16,-0.335 -1.329,-0.17 -2.495,-0.168 c -2.492,1.687 -2.99,3.712 -2.99,3.712 -1.332,2.53 -4.488,-1.013 -3.324,-2.362 1.162,-1.35 -3.658,-0.17 -4.49,0.505 -0.833,0.675 -3.326,0.338 -3.326,0.338 -0.497,1.52 -2.824,-0.167 -2.16,-1.18 0.665,-1.013 0.665,-1.688 0.665,-1.688 l -0.83,-0.169 -0.997,1.856 c -2.327,0 -2.994,1.348 -2.496,2.193 0.499,0.842 -0.664,-0.169 -0.998,1.012 -0.33,1.18 0.169,1.18 1.167,1.687 0.998,0.507 -0.5,0.507 0.165,1.349 0.664,0.845 2.66,0 1.497,1.182 -1.163,1.18 -3.493,0.676 -3.493,0.676 -0.165,1.515 -3.324,1.18 -3.654,0.674 -0.335,-0.506 -2.826,-3.544 -2.826,-3.544 l -3.163,-0.168 c -0.33,-2.36 1.498,-1.18 2.163,-3.037 0.668,-1.856 1,-4.891 1,-4.891 0,0 -2.663,-0.169 -2.828,0.674 -0.165,0.844 -1.828,1.35 -1.828,1.35 0,0 -1.331,0.505 -0.832,1.18 0.5,0.677 -0.998,1.011 -0.998,1.011 0,0 0.26,1.09 -0.165,1.52 -1.328,1.35 -4.656,0.167 -5.152,-0.338 l -1.996,-0.844 -1.996,-1.349 -2.326,1.01 -0.664,0.677 h -2.495 l -0.165,2.022 4.488,0.505 0.333,4.176 -1.83,-0.63 h -1.164 l -0.497,-1.013 -0.999,-0.17 v 3.711 l 0.999,0.845 0.832,0.841 1.663,0.17 0.333,2.023 4.153,0.171 0.5,0.842 2.495,0.17 4.82,4.89 -0.333,1.52 -0.833,0.506 c 0.335,1.181 -2.158,0.507 -2.158,0.507 v 1.01 l 1.16,0.17 1.167,0.673 1.66,-2.867 c 1.829,-1.18 2.658,0.507 2.827,1.519 0.165,1.012 -0.833,0.843 -0.833,0.843 v 2.364 l 0.998,0.335 c 1.665,2.025 -0.664,3.207 -0.664,3.207 l -0.5,1.686 c -0.5,1.519 -2.327,1.18 -2.327,1.18 l -0.663,1.013 -1.998,0.507 3.947,0.505 c 0.376,-1.35 1.37,-1.687 1.87,-1.012 0.5,0.676 0.5,1.857 0.5,1.857 l 1,0.168 -0.169,1.855 0.999,0.339 v 5.398 l 1.163,1.35 c 1.995,-0.842 1.995,0.507 0.996,1.18 -0.996,0.673 -0.333,3.712 -0.333,3.712 l -0.83,0.842 v 1.351 l -0.997,0.675 v 1.855 c -1.663,-0.843 -3.659,-0.508 -4.159,0 -1.493,-1.013 -4.652,-0.675 -4.652,0.17 0.996,1.35 -1.162,1.687 -1.162,1.687 l -1.166,1.35 c 0.833,1.687 -0.829,1.854 -0.829,1.854 v 3.207 l -1.996,1.856 0.168,4.386 c 0,1.181 2.492,1.349 2.99,0.675 0.499,-0.675 2.495,1.35 2.495,1.35 h 1.493 l 0.335,-3.038 -0.999,-0.506 v -4.893 l 1.663,-1.857 c 1.996,-0.674 1.331,4.39 1.331,4.895 0.166,1.855 0.994,1.687 1.828,1.348 1.662,-0.674 0.33,1.859 -0.998,1.688 -1.329,-0.167 -0.5,1.687 -0.5,1.687 l 0.834,0.339 -1.498,1.18 -1.327,1.52 -1.666,-0.508 -1.992,-0.166 -0.665,-1.184 -1.166,-0.168 -0.166,2.36 -0.83,1.013 -1.995,2.027 c 2.661,0 -0.334,1.852 -0.998,1.852 1.496,0.507 -0.165,2.027 -3.988,0.847 v 1.179 l -1.332,0.17 1.167,1.347 1.327,0.17 -0.499,2.867 c 0,2.193 -5.484,0.673 -5.984,0.169 l -0.166,3.037 -0.998,0.166 0.166,2.027 -0.166,2.869 1.828,-0.338 v 1.182 l 4.49,0.169 6.484,-6.92 3.822,-0.841 c 0.331,-1.69 1.992,0.338 1.992,0.338 1.664,-0.173 1.997,1.01 1.997,1.01 l 2.162,0.338 c 1.826,0.508 0.722,0.685 0.83,1.352 0.164,1.01 0.996,0.673 0.996,0.673 l 0.335,-2.193 0.998,0.168 -0.998,-1.181 -1.831,-0.845 -1.993,-0.842 c -1.332,-1.855 0.332,-1.518 1.663,-1.348 h 2.16 c 0,0 2.496,3.372 2.496,4.216 0,0.846 1.163,1.014 1.163,1.014 l 1.493,-0.17 0.5,1.18 h 1.496 l 0.5,1.01 h 2.992 l 0.166,-1.517 -2.829,-0.503 -0.164,-1.69 -1.993,-0.506 c -0.668,-2.866 0.496,-3.71 1.328,-2.359 l 0.997,0.165 -0.333,-2.53 1.163,-0.338 -0.332,-3.544 -0.996,-0.335 v -1.182 l 4.153,0.172 c -0.33,-2.197 0.168,-3.208 0.168,-3.208 h 1.163 l 0.166,0.846 5.086,0.48 3.596,-4.125 c -0.181,-0.315 0.361,-0.508 -0.034,-0.912 -0.5,-0.506 -1.166,0 -2,-0.506 -0.83,-0.503 0,-3.374 -0.165,-4.048 -0.166,-0.674 2.829,-1.69 2.33,-0.169 -0.5,1.52 0,2.194 0,2.194 2.16,-2.025 3.989,0.167 3.824,0.674 -0.17,0.506 1.161,1.013 1.991,0.506 0.833,-0.506 1.83,1.52 1.497,2.53 -0.334,1.011 -3.323,0.844 -3.488,-0.169 -0.17,-1.013 -0.67,-0.674 -0.998,-0.167 -0.335,0.506 -1.828,0.842 -2.66,0.335 -0.17,-0.102 -0.25,-0.187 -0.297,-0.269 l -3.596,4.125 0.233,0.024 c 1.993,1.183 0.998,2.7 0.335,3.038 -0.668,0.337 -1.831,0.337 -1.831,0.337 l -0.33,0.676 -4.323,0.336 -0.334,1.689 c -2.161,-0.341 -2.99,2.023 -2.492,3.202 0.5,1.18 0,2.193 0,2.193 l 1.829,0.845 2.325,-0.672 c 0.335,-1.69 1.828,-2.028 3.16,-3.038 1.328,-1.013 3.491,1.852 2.824,3.204 -0.664,1.348 -0.664,1.855 -0.664,1.855 l 0.164,1.52 -1.66,0.673 -1.33,0.676 -0.169,0.844 H 627.4 l -0.83,0.842 -2.162,0.173 -0.668,1.01 -1.493,0.17 c 0,0 -2.495,1.181 -1.496,2.53 0.997,1.351 -4.155,1.182 -5.322,-0.675 -0.333,1.685 -2.16,0.168 -2.16,0.168 l -1.828,-0.507 -0.165,-2.528 c -0.333,-1.689 -3.492,-1.689 -3.324,-0.506 0.165,1.181 -5.987,0.506 -5.987,0.506 l -1.994,0.969 -1.83,1.056 -0.165,0.842 -2.994,0.337 -1.328,0.676 -0.498,-1.013 h -1.33 l -1.33,1.858 c -3.49,0.17 -6.815,2.193 -6.483,3.037 0.333,0.842 -1.328,1.69 -1.328,1.69 l -1.498,0.5 -0.995,1.52 -1.995,0.676 -0.335,3.544 -0.995,0.673 v 1.52 l -1.166,0.335 v 0.845 l -1.661,0.169 0.995,2.531 1.334,0.676 c 2.327,0.335 1.328,3.206 1.328,3.206 l 1.328,0.166 0.668,1.855 1.328,2.7 c 0.5,2.027 1.996,1.52 2.66,1.351 0.665,-0.166 1.328,2.024 1.328,2.024 l 6.649,0.17 c 0,0 -0.33,0.675 0.833,1.012 1.162,0.335 8.81,0.676 9.144,0.17 -0.335,-1.52 4.153,-1.858 5.984,-0.508 1.826,1.348 4.32,0.508 4.32,0.508 l 2.494,3.033 1.665,3.713 2.825,0.842 1.993,0.508 0.667,2.868 1.494,0.169 0.5,1.857 c 1.83,1.349 -0.5,4.218 -0.5,4.218 v 3.71 l 1.33,0.676 -0.167,1.351 2.164,2.19 2.492,0.172 6.318,6.747 4.985,1.517 0.83,2.7 1.333,-0.169 0.996,-0.842 3.989,-0.169 1.996,-1.858 2.16,-0.335 18.452,-15.69 -1.664,-1.014 v -3.71 c 2.992,-2.192 3.158,-6.075 0.333,-6.412 -2.144,-0.256 -1.162,-2.531 0.833,-2.868 l 1.162,-0.504 v -1.52 l 3.823,-3.541 v -2.7 l -8.309,-6.92 c -3.659,-1.347 0,-9.447 2.49,-9.278 2.496,0.167 -0.164,-12.484 -0.164,-12.484 l -1.332,-0.673 0.335,-4.051 h -1.828 l -2.993,3.882 -0.83,2.697 c -0.333,3.547 -10.64,2.868 -11.14,2.362 -0.5,-0.507 -3.989,-2.024 -3.989,-2.024 0,0 -2.66,-2.193 -3.158,-1.517 -0.5,0.676 -2.825,-0.845 -2.825,-0.338 0,0.507 -2.16,-1.179 -2.16,-1.179 l -3.324,-1.182 2.495,-0.508 -0.5,-2.023 4.318,2.193 c 0.5,0.672 2.66,0.507 2.66,0.507 l 0.665,0.844 c 0,0 1.332,-0.171 2.166,0.843 0.83,1.013 5.15,0.169 5.15,0.169 l 1.163,1.01 1.828,0.676 5.155,0.17 0.165,-3.204 0.998,-1.013 -0.166,-2.027 1.163,-1.01 v -1.686 l 0.998,-0.338 0.165,-3.71 0.83,-0.169 v -8.099 l -2.493,-2.363 c -0.164,0.845 -2.824,0.845 -2.824,0.845 0,0 -0.665,1.18 -1.164,1.18 -0.497,0 0.666,1.516 0.332,2.53 -0.332,1.01 -1.663,1.01 -1.663,1.01 l -2.495,0.677 -0.664,0.845 h -2.66 l -0.33,-2.193 2.99,-0.845 1.661,-0.842 0.833,-1.69 c 0.165,-1.684 2.16,-1.517 2.16,-1.517 0,0 3.824,-3.206 3.99,-4.722 0.169,-1.519 1.497,-5.737 3.823,-5.737 h 4.323 c 1.661,-0.677 1.163,-2.869 1.163,-2.869 l 2.162,-0.335 0.333,1.18 c 0,0 2.993,0.337 3.324,-0.169 0.334,-0.504 0.998,-1.687 1.83,-1.18 0.831,0.505 3.49,-1.182 3.49,-1.182 0.166,-1.181 4.322,-0.675 4.322,-0.675 l 0.5,-1.517 c 0,0 -2.825,-3.88 -3.324,-3.88 -0.5,0 -3.159,-2.365 -3.493,-1.52 -2.656,-0.674 -2.492,-4.387 -2.492,-4.387 l -0.998,-2.36 c 0,-1.352 -2.49,-4.22 -2.993,-3.88 -2.495,-1.856 -0.664,-4.05 0,-4.219 0.665,-0.167 2.33,-2.53 2.33,-2.53 l 0.83,-2.363 2.825,-0.84 0.333,-2.195 -1.493,-0.169 c 0,0 1.66,-3.037 2.492,-3.037 0.833,0 6.318,0 6.813,-0.339 0.5,-0.335 1.496,-3.035 1.496,-3.541 0,-0.507 1.333,-0.676 1.829,-0.846 0.499,-0.167 1.662,-1.517 1.995,-2.192 0.333,-0.68 -0.828,-4.898 -1.495,-4.223 z"
       id="path21"
       style="fill:#00a800;fill-opacity:1" /><path
       d="m 599.98,405.6 c 0.25,-0.25 0.5,0.76 0.998,0.634 0.495,-0.127 0.747,0.886 0.25,0.886 -0.5,0 -0.5,0.634 -0.5,0.887 0,0.253 0,0.884 -0.375,1.264 -0.374,0.38 -0.75,0.126 -1.249,-0.126 -0.497,-0.253 -0.744,-0.253 -1.37,-0.253 -0.622,0 -0.126,1.013 -0.126,1.013 0,0 -2.618,-0.127 -2.119,-0.508 0.5,-0.376 0.998,-0.506 0.626,-0.76 -0.376,-0.253 0,-0.504 0,-1.01 0,-0.508 1.247,-0.253 0.87,-0.634 -0.371,-0.38 0.008,-1.848 0.623,-1.013 l 0.376,-0.887 c -0.376,-0.379 -0.124,-0.507 -0.872,-0.756 -0.748,-0.253 -0.127,-1.773 -0.127,-1.773 l 0.127,-1.012 c 0.249,-1.263 2.741,-1.391 2.867,-0.254 0.123,1.14 0,1.9 0,1.9 l 0.75,0.251 c 0,0 -0.127,0.763 -0.75,0.763 -0.626,0 0,0.375 -0.375,0.757 l 0.376,0.63 z m -8.23,1.27 c 0.375,-0.76 1.246,-4.05 2.245,-3.037 0.994,1.013 1.62,0 1.62,0 0,0 0.499,0.508 0.249,1.52 -0.25,1.01 -0.5,2.024 -1.125,2.15 -0.621,0.127 -1.121,0.507 -1.866,0.634 -0.747,0.127 -1.123,-1.267 -1.123,-1.267 z"
       id="path23"
       style="fill:#00a800;fill-opacity:1" /></g></svg>
